<?xml version="1.0" standalone="no"?><!DOCTYPE svg PUBLIC "-//W3C//DTD SVG 1.1//EN" "http://www.w3.org/Graphics/SVG/1.1/DTD/svg11.dtd"><svg t="1571489894897" class="icon" viewBox="0 0 2457 1024" version="1.1" xmlns="http://www.w3.org/2000/svg" p-id="11601" width="307.125" height="128" xmlns:xlink="http://www.w3.org/1999/xlink"><defs><style type="text/css"></style></defs><path d="M511.9488 0h1433.6c282.7776 0 512 229.2224 512 512s-229.2224 512-512 512h-1433.6c-282.7776 0-512-229.2224-512-512s229.2224-512 512-512z" fill="#8E00FF" p-id="11602"></path><path d="M1216.6656 521.3184V415.6416h-64.7168a25.6 25.6 0 0 1-25.6-25.6v-3.0208a25.6 25.6 0 0 1 25.6-25.6h64.7168V332.8a25.6 25.6 0 0 1 25.6-25.6h16.5888a25.6 25.6 0 0 1 25.6 25.6v28.6208h28.4672a18.6368 18.6368 0 0 1 16.64 27.0848l-6.656 13.056a25.4976 25.4976 0 0 1-22.784 14.08h-15.6672v40.0896a25.6 25.6 0 0 1 28.928 5.12l11.7248 11.6736a25.6 25.6 0 0 1 0 36.1984l-40.6528 40.6528v165.9392a25.6 25.6 0 0 1-25.6 25.6h-89.6a18.176 18.176 0 0 1-5.632-35.5328l53.0432-17.152v-71.0656l-11.5712 11.5712a25.6 25.6 0 0 1-24.9344 6.6048l-23.1424-6.4512a22.6816 22.6816 0 0 1-9.984-37.9392l69.632-69.632z m533.0944-24.3712V332.8a25.6 25.6 0 0 1 25.6-25.6h16.5888a25.6 25.6 0 0 1 25.6 25.6v28.6208h186.5728a18.6368 18.6368 0 0 1 16.64 27.0848l-6.656 13.056a25.4976 25.4976 0 0 1-22.784 14.08h-173.7728v81.3056h208.5376a18.6368 18.6368 0 0 1 16.5888 27.0848l-6.656 13.1584a25.7024 25.7024 0 0 1-22.8352 13.9776h-195.6352v172.3904a25.5488 25.5488 0 0 1-16.0768 23.7568l-17.8176 7.1168a24.6784 24.6784 0 0 1-33.8944-22.9376v-180.3264h-109.9264a25.6 25.6 0 0 1-25.6-25.6v-3.0208a25.6 25.6 0 0 1 25.6-25.6h109.9264z m-234.9056-135.5264v353.8944a25.6 25.6 0 0 1-25.6 25.6h-89.6a18.176 18.176 0 0 1-5.632-35.5328l53.0432-17.152V361.4208h-78.336a25.6 25.6 0 0 1-25.6-25.6V332.8a25.6 25.6 0 0 1 25.6-25.6h188.1088a18.6368 18.6368 0 0 1 16.6912 27.0848l-6.656 13.056a25.4976 25.4976 0 0 1-22.784 14.08h-29.2352z m334.336 219.5456l11.7248-11.7248a25.6 25.6 0 0 1 36.1984 0l92.928 92.928a25.6 25.6 0 0 1 6.5536 24.9344l-6.4 23.1424a22.6816 22.6816 0 0 1-37.9392 9.984l-103.0656-103.0656a25.6 25.6 0 0 1 0-36.1984zM819.0464 479.6928l0.1024 2.3552v198.0928a37.2736 37.2736 0 0 1-37.5808 36.6592H447.1296a37.2736 37.2736 0 0 1-37.5808-36.6592V388.6592c0-8.96 7.5264-16.3328 16.7424-16.3328h74.0352v-39.3216A26.112 26.112 0 0 1 526.7968 307.2a26.112 26.112 0 0 1 26.4704 25.8048v39.3216h130.3552v-39.3216c0-14.2336 11.8784-25.8048 26.4704-25.8048a26.112 26.112 0 0 1 26.4704 25.8048v39.3216h65.792c9.216 0 16.7424 7.3728 16.6912 16.3328v91.0336zM459.8784 409.4976a12.0832 12.0832 0 0 0-12.1856 11.9296V445.44h333.2608v-24.0128a12.032 12.032 0 0 0-12.1856-11.9296h-54.784a24.4224 24.4224 0 0 1-7.7312 0h-175.616a24.4224 24.4224 0 0 1-7.7312 0H459.8784z m270.848 139.52a22.2208 22.2208 0 0 0 0.1024-29.7984c-10.24-7.4752-25.6-7.4752-33.28 0l-110.08 104.2944-56.32-54.6816c-10.24-7.424-25.6-7.424-33.28 0a22.2208 22.2208 0 0 0 0 29.8496l71.68 69.5296c10.24 7.4752 25.5488 7.4752 33.28 0l127.9488-119.1936z" fill="#ffffff" p-id="11603" data-spm-anchor-id="a313x.7781069.0.i10" class="selected"></path></svg>